<svg xmlns="http://www.w3.org/2000/svg" width="1280" height="400" viewBox="0 0 1280 400"><defs><linearGradient id="g" x1="0" x2="1"><stop offset="0" stop-color="#1e3c72"/><stop offset="1" stop-color="#2a5298"/></linearGradient><filter id="blur" width="140%" height="140%" x="-20%" y="-20%"><feGaussianBlur stdDeviation="12"/></filter></defs><rect width="100%" height="100%" fill="url(#g)"/><g transform="translate(80,40)"><rect width="1120" height="320" fill="#071026" opacity=".8" rx="18"/><g><text x="0" y="70" fill="#fff" font-family="Rubik, sans-serif" font-size="72" font-weight="700" transform="translate(40,20)">Tetris</text><text x="0" y="120" fill="#ffd54d" font-family="Rubik, sans-serif" font-size="20" transform="translate(40,20)">Classic blocks · Modern shine</text><g transform="translate(40,20) translate(420,10)"><rect width="56" height="56" x="0" y="0" fill="#00f0f0" rx="6"/><rect width="56" height="56" x="56" y="0" fill="#0000f0" rx="6"/><rect width="56" height="56" x="112" y="0" fill="#f0a000" rx="6"/><rect width="56" height="56" x="0" y="56" fill="#f0f000" rx="6"/><rect width="56" height="56" x="56" y="56" fill="#00f000" rx="6"/><rect width="56" height="56" x="112" y="56" fill="#a000f0" rx="6"/><rect width="56" height="56" x="168" y="56" fill="#f00000" rx="6"/></g><g filter="url(#blur)" transform="translate(40,20) translate(420,10)"><rect width="230" height="140" x="-10" y="-10" fill="#fff" opacity=".03" rx="20"/></g><g transform="translate(40,20) translate(420,170)"><rect width="420" height="90" x="0" y="0" fill="#0b1220" opacity=".9" rx="12"/><text x="18" y="28" fill="#fff" font-family="Rubik, sans-serif" font-size="16">Features:</text><text x="18" y="52" fill="#cfe8ff" font-family="Rubik, sans-serif" font-size="14">• SRS rotation · Hold · Ghost · Mobile</text><text x="18" y="72" fill="#cfe8ff" font-family="Rubik, sans-serif" font-size="14">• High score · Sound toggle · Polished UI</text></g></g></g></svg>